<svg viewBox="0 0 440 400" fill="none" xmlns="http://www.w3.org/2000/svg">
  <defs>
    <pattern id="hv2-grid" width="22" height="22" patternUnits="userSpaceOnUse">
      <path d="M 22 0 L 0 0 0 22" fill="none" stroke="#00B7FF" stroke-width="0.4" opacity="0.12"/>
    </pattern>
    <radialGradient id="hv2-glow" cx="50%" cy="55%" r="50%">
      <stop offset="0%" stop-color="#00B7FF" stop-opacity="0.12"/>
      <stop offset="100%" stop-color="#00B7FF" stop-opacity="0"/>
    </radialGradient>
    <radialGradient id="hv2-center" cx="50%" cy="50%" r="50%">
      <stop offset="0%" stop-color="#00B7FF" stop-opacity="0.18"/>
      <stop offset="100%" stop-color="#00B7FF" stop-opacity="0"/>
    </radialGradient>
  </defs>
  <rect width="440" height="400" fill="url(#hv2-grid)"/>
  <ellipse cx="220" cy="228" rx="155" ry="140" fill="url(#hv2-glow)"/>
  <circle cx="220" cy="228" r="132" stroke="#00B7FF" stroke-width="2" opacity="0.18"/>
  <circle cx="220" cy="228" r="108" stroke="#00B7FF" stroke-width="1.5" opacity="0.3"/>
  <circle cx="220" cy="228" r="80" stroke="#00B7FF" stroke-width="2" opacity="0.5"/>
  <circle cx="220" cy="228" r="48" stroke="#00B7FF" stroke-width="2.5" opacity="0.85"/>
  <circle cx="220" cy="228" r="48" fill="url(#hv2-center)"/>
  <line x1="220" y1="96" x2="220" y2="148" stroke="#00B7FF" stroke-width="0.8" opacity="0.22"/>
  <line x1="313" y1="135" x2="276" y2="161" stroke="#00B7FF" stroke-width="0.8" opacity="0.22"/>
  <line x1="352" y1="228" x2="300" y2="228" stroke="#00B7FF" stroke-width="0.8" opacity="0.22"/>
  <line x1="313" y1="321" x2="276" y2="295" stroke="#00B7FF" stroke-width="0.8" opacity="0.22"/>
  <line x1="220" y1="360" x2="220" y2="308" stroke="#00B7FF" stroke-width="0.8" opacity="0.22"/>
  <line x1="127" y1="321" x2="164" y2="295" stroke="#00B7FF" stroke-width="0.8" opacity="0.22"/>
  <line x1="88" y1="228" x2="140" y2="228" stroke="#00B7FF" stroke-width="0.8" opacity="0.22"/>
  <line x1="127" y1="135" x2="164" y2="161" stroke="#00B7FF" stroke-width="0.8" opacity="0.22"/>
  <line x1="172" y1="18" x2="207" y2="228" stroke="#ff6f69" stroke-width="8" stroke-linecap="round" opacity="0.92"/>
  <circle cx="172" cy="18" r="9" fill="#ff6f69" opacity="0.92"/>
  <line x1="268" y1="18" x2="233" y2="228" stroke="#ff6f69" stroke-width="8" stroke-linecap="round" opacity="0.92"/>
  <circle cx="268" cy="18" r="9" fill="#ff6f69" opacity="0.92"/>
  <ellipse cx="106" cy="72" rx="40" ry="11" stroke="#ffcc5c" stroke-width="1.5" opacity="0.55" fill="none"/>
  <ellipse cx="106" cy="78" rx="40" ry="11" stroke="#ffcc5c" stroke-width="1" opacity="0.3" fill="none"/>
  <line x1="106" y1="89" x2="106" y2="140" stroke="#a7adba" stroke-width="2" opacity="0.35"/>
  <ellipse cx="334" cy="72" rx="40" ry="11" stroke="#ffcc5c" stroke-width="1.5" opacity="0.55" fill="none"/>
  <line x1="334" y1="83" x2="334" y2="140" stroke="#a7adba" stroke-width="2" opacity="0.35"/>
  <text x="4" y="176" font-size="15" fill="#00B7FF" opacity="0.65" font-family="monospace">{</text>
  <rect x="14" y="185" width="58" height="2.5" rx="1.2" fill="#a7adba" opacity="0.45"/>
  <rect x="18" y="195" width="42" height="2.5" rx="1.2" fill="#00B7FF" opacity="0.6"/>
  <rect x="18" y="205" width="52" height="2.5" rx="1.2" fill="#a7adba" opacity="0.38"/>
  <rect x="18" y="215" width="34" height="2.5" rx="1.2" fill="#ffcc5c" opacity="0.5"/>
  <rect x="18" y="225" width="48" height="2.5" rx="1.2" fill="#a7adba" opacity="0.35"/>
  <rect x="18" y="235" width="30" height="2.5" rx="1.2" fill="#00B7FF" opacity="0.5"/>
  <rect x="18" y="245" width="44" height="2.5" rx="1.2" fill="#a7adba" opacity="0.38"/>
  <rect x="18" y="255" width="38" height="2.5" rx="1.2" fill="#ffcc5c" opacity="0.45"/>
  <rect x="18" y="265" width="50" height="2.5" rx="1.2" fill="#a7adba" opacity="0.3"/>
  <rect x="18" y="275" width="40" height="2.5" rx="1.2" fill="#00B7FF" opacity="0.4"/>
  <text x="4" y="290" font-size="15" fill="#00B7FF" opacity="0.65" font-family="monospace">}</text>
  <line x1="72" y1="228" x2="88" y2="228" stroke="#00B7FF" stroke-width="1" stroke-dasharray="3 2" opacity="0.5"/>
  <circle cx="72" cy="228" r="3" fill="#00B7FF" opacity="0.7"/>
  <text x="418" y="176" font-size="15" fill="#00B7FF" opacity="0.65" font-family="monospace" text-anchor="end">}</text>
  <rect x="368" y="185" width="58" height="2.5" rx="1.2" fill="#a7adba" opacity="0.45"/>
  <rect x="368" y="195" width="44" height="2.5" rx="1.2" fill="#00B7FF" opacity="0.6"/>
  <rect x="368" y="205" width="50" height="2.5" rx="1.2" fill="#a7adba" opacity="0.38"/>
  <rect x="368" y="215" width="38" height="2.5" rx="1.2" fill="#ffcc5c" opacity="0.5"/>
  <rect x="368" y="225" width="56" height="2.5" rx="1.2" fill="#a7adba" opacity="0.35"/>
  <rect x="368" y="235" width="32" height="2.5" rx="1.2" fill="#00B7FF" opacity="0.5"/>
  <rect x="368" y="245" width="48" height="2.5" rx="1.2" fill="#a7adba" opacity="0.38"/>
  <rect x="368" y="255" width="40" height="2.5" rx="1.2" fill="#ffcc5c" opacity="0.4"/>
  <rect x="368" y="265" width="52" height="2.5" rx="1.2" fill="#a7adba" opacity="0.3"/>
  <rect x="368" y="275" width="36" height="2.5" rx="1.2" fill="#00B7FF" opacity="0.4"/>
  <text x="422" y="290" font-size="15" fill="#00B7FF" opacity="0.65" font-family="monospace" text-anchor="end">{</text>
  <line x1="368" y1="228" x2="352" y2="228" stroke="#00B7FF" stroke-width="1" stroke-dasharray="3 2" opacity="0.5"/>
  <circle cx="368" cy="228" r="3" fill="#00B7FF" opacity="0.7"/>
</svg>
